<svg width="82" height="82" viewBox="0 0 82 82" fill="none" xmlns="http://www.w3.org/2000/svg">
<path d="M25.625 43.5625C18.5602 43.5625 12.8125 49.3102 12.8125 56.375C12.8125 63.4398 18.5602 69.1875 25.625 69.1875C32.6898 69.1875 38.4375 63.4398 38.4375 56.375C38.4375 49.3102 32.6898 43.5625 25.625 43.5625ZM25.625 64.0625C21.3853 64.0625 17.9375 60.6147 17.9375 56.375C17.9375 52.1353 21.3853 48.6875 25.625 48.6875C29.8647 48.6875 33.3125 52.1353 33.3125 56.375C33.3125 60.6147 29.8647 64.0625 25.625 64.0625Z" fill="black"/>
<path d="M42.927 51.7113C42.5221 50.2032 41.9276 48.7644 41.1602 47.4357L40.786 46.7861L43.041 42.9859L39.0128 38.9577L35.2126 41.2127L34.563 40.8386C33.2343 40.0711 31.7955 39.4779 30.2875 39.0717L29.5648 38.877L28.4732 34.5938H22.7781L21.6852 38.8782L20.9625 39.073C19.4545 39.4779 18.0157 40.0724 16.687 40.8398L16.0374 41.214L12.2372 38.959L8.20897 42.9872L10.464 46.7874L10.0898 47.437C9.32237 48.7657 8.72787 50.2045 8.323 51.7125L8.12825 52.4352L3.84375 53.5268V59.2219L8.12825 60.3148L8.323 61.0375C8.72787 62.5455 9.32237 63.9843 10.0898 65.313L10.464 65.9626L8.20897 69.7628L12.2372 73.791L16.0374 71.536L16.687 71.9102C18.0157 72.6776 19.4545 73.2708 20.9625 73.677L21.6852 73.8717L22.7768 78.1562H28.4719L29.5648 73.8717L30.2875 73.677C31.7955 73.2721 33.2343 72.6776 34.563 71.9102L35.2126 71.536L39.0128 73.791L43.041 69.7628L40.786 65.9626L41.1602 65.313C41.9276 63.9843 42.5208 62.5455 42.927 61.0375L43.1217 60.3148L47.4062 59.2232V53.5281L43.1217 52.4352L42.927 51.7113ZM25.625 71.75C17.147 71.75 10.25 64.853 10.25 56.375C10.25 47.897 17.147 41 25.625 41C34.103 41 41 47.897 41 56.375C41 64.853 34.103 71.75 25.625 71.75Z" fill="black"/>
<path d="M25.625 61.5C28.4555 61.5 30.75 59.2055 30.75 56.375C30.75 53.5445 28.4555 51.25 25.625 51.25C22.7945 51.25 20.5 53.5445 20.5 56.375C20.5 59.2055 22.7945 61.5 25.625 61.5Z" fill="black"/>
<path d="M76.875 14.0938H46.125C45.4178 14.0938 44.8438 14.6678 44.8438 15.375V33.3125C44.8438 34.0198 45.4178 34.5938 46.125 34.5938H51.25V38.9269L59.9164 34.5938H76.875C77.5822 34.5938 78.1562 34.0198 78.1562 33.3125V15.375C78.1562 14.6678 77.5822 14.0938 76.875 14.0938ZM75.5938 32.0313H49.9688V29.4688H52.5312V24.3438H55.0938V29.4688H57.6562V21.7813H60.2188V29.4688H62.7812V16.6563H65.3438V29.4688H67.9062V19.2188H70.4688V29.4688H73.0312V16.6563H75.5938V32.0313Z" fill="black"/>
<path d="M5.125 21.7812H18.2924L23.0625 24.6423V21.7812H35.875C36.5822 21.7812 37.1562 21.2073 37.1562 20.5V5.125C37.1562 4.41775 36.5822 3.84375 35.875 3.84375H5.125C4.41775 3.84375 3.84375 4.41775 3.84375 5.125V20.5C3.84375 21.2073 4.41775 21.7812 5.125 21.7812ZM30.75 10.25C32.1632 10.25 33.3125 11.3993 33.3125 12.8125C33.3125 14.2257 32.1632 15.375 30.75 15.375C29.3368 15.375 28.1875 14.2257 28.1875 12.8125C28.1875 11.3993 29.3368 10.25 30.75 10.25ZM20.5 10.25C21.9132 10.25 23.0625 11.3993 23.0625 12.8125C23.0625 14.2257 21.9132 15.375 20.5 15.375C19.0868 15.375 17.9375 14.2257 17.9375 12.8125C17.9375 11.3993 19.0868 10.25 20.5 10.25ZM10.25 10.25C11.6632 10.25 12.8125 11.3993 12.8125 12.8125C12.8125 14.2257 11.6632 15.375 10.25 15.375C8.83678 15.375 7.6875 14.2257 7.6875 12.8125C7.6875 11.3993 8.83678 10.25 10.25 10.25Z" fill="black"/>
<path d="M66.625 55.0938C64.452 55.0938 62.3238 55.7126 60.4712 56.8849L60.0855 57.1284L55.8535 56.6248L57.2437 59.9023L56.8849 60.4699C55.7126 62.3238 55.0938 64.452 55.0938 66.625C55.0938 69.3797 56.0675 71.9102 57.6857 73.8961C57.8292 71.9973 58.9324 70.3201 60.6569 69.4578L62.5955 68.4892C61.8921 67.5923 61.5 66.4841 61.5 65.3438V62.9991C61.5 60.1496 63.6307 57.8049 66.3508 57.6627C67.7909 57.6114 69.1234 58.088 70.1536 59.0643C71.1683 60.0278 71.75 61.3821 71.75 62.7813V65.3438C71.75 66.4841 71.3579 67.5923 70.6558 68.4892L72.5943 69.4578C74.3189 70.3201 75.4221 71.9973 75.5656 73.8961C77.1825 71.9102 78.1562 69.3797 78.1562 66.625C78.1562 60.2662 72.9838 55.0938 66.625 55.0938Z" fill="black"/>
<path d="M66.625 78.1562C69.363 78.1562 71.8768 77.1927 73.8577 75.5938H59.3923C61.3731 77.1927 63.887 78.1562 66.625 78.1562Z" fill="black"/>
<path d="M61.8024 71.75C61.2336 72.0344 60.789 72.4867 60.5173 73.0313H72.7315C72.4599 72.4867 72.0165 72.0344 71.4464 71.75L67.9063 69.9793V67.6205L68.3291 67.2387C68.8826 66.7403 69.1875 66.0664 69.1875 65.3438V62.7813C69.1875 62.0714 68.9031 61.4129 68.3893 60.9234C67.8743 60.4327 67.1875 60.1816 66.4854 60.2226C65.1503 60.2931 64.0625 61.5372 64.0625 62.9991V65.3438C64.0625 66.0664 64.3675 66.7403 64.921 67.2387L65.3438 67.6205V69.9793L61.8024 71.75Z" fill="black"/>
</svg>
