<svg width="78" height="78" viewBox="0 0 78 78" fill="none" xmlns="http://www.w3.org/2000/svg">
<path d="M76.7969 28.5809C76.992 28.4683 77.154 28.3061 77.2665 28.1109C77.379 27.9156 77.438 27.6942 77.4375 27.4688V17.2188C77.438 16.9935 77.379 16.772 77.2665 16.5768C77.154 16.3815 76.992 16.2194 76.7969 16.1067L67.8281 10.9817C67.6346 10.8711 67.4155 10.813 67.1926 10.813C66.9697 10.813 66.7507 10.8711 66.5571 10.9817L57.5884 16.1067C57.3913 16.2181 57.2273 16.3796 57.113 16.575C56.9986 16.7703 56.9381 16.9925 56.9375 17.2188V20.2708L49.25 16.427V6.96883C49.2505 6.74349 49.1915 6.52202 49.079 6.32677C48.9665 6.13151 48.8045 5.96937 48.6094 5.8567L39.6406 0.7317C39.4471 0.62114 39.228 0.562988 39.0051 0.562988C38.7822 0.562988 38.5632 0.62114 38.3696 0.7317L29.4009 5.8567C29.2038 5.96806 29.0398 6.12964 28.9255 6.32498C28.8111 6.52033 28.7506 6.74248 28.75 6.96883V16.427L21.0625 20.2708V17.2188C21.0629 16.9935 21.004 16.772 20.8915 16.5768C20.779 16.3815 20.617 16.2194 20.4219 16.1067L11.4531 10.9817C11.2596 10.8711 11.0405 10.813 10.8176 10.813C10.5947 10.813 10.3757 10.8711 10.1821 10.9817L1.21338 16.1067C1.01632 16.2181 0.852285 16.3796 0.737957 16.575C0.623628 16.7703 0.56309 16.9925 0.562502 17.2188V27.4688C0.562058 27.6942 0.621049 27.9156 0.733524 28.1109C0.846 28.3061 1.00798 28.4683 1.20313 28.5809L9.53125 33.3369V44.6632L1.20313 49.4192C1.00798 49.5319 0.846 49.694 0.733524 49.8893C0.621049 50.0845 0.562058 50.306 0.562502 50.5313V60.7813C0.562058 61.0067 0.621049 61.2281 0.733524 61.4234C0.846 61.6186 1.00798 61.7808 1.20313 61.8934L10.1719 67.0184C10.3654 67.129 10.5845 67.1872 10.8074 67.1872C11.0303 67.1872 11.2493 67.129 11.4429 67.0184L19.7467 62.2778L28.75 67.8987V71.0313C28.7496 71.2567 28.8085 71.4781 28.921 71.6734C29.0335 71.8686 29.1955 72.0308 29.3906 72.1434L38.3594 77.2684C38.5529 77.379 38.772 77.4372 38.9949 77.4372C39.2178 77.4372 39.4368 77.379 39.6304 77.2684L48.5991 72.1434C48.7962 72.0321 48.9602 71.8705 49.0746 71.6752C49.1889 71.4798 49.2494 71.2577 49.25 71.0313V67.8987L58.2482 62.274L66.552 67.0146C66.7456 67.1252 66.9646 67.1833 67.1875 67.1833C67.4104 67.1833 67.6294 67.1252 67.823 67.0146L76.7918 61.8896C76.9873 61.7779 77.1499 61.6167 77.2633 61.4221C77.3767 61.2275 77.4368 61.0065 77.4375 60.7813V50.5313C77.438 50.306 77.379 50.0845 77.2665 49.8893C77.154 49.694 76.992 49.5319 76.7969 49.4192L68.4688 44.6632V33.3369L76.7969 28.5809ZM68.4688 30.3862V23.0831L74.875 19.4226V26.7257L68.4688 30.3862ZM67.1875 54.1803L60.8005 50.5313L67.1875 46.8823L73.5745 50.5313L67.1875 54.1803ZM59.5 19.4264L65.9063 23.087V30.3901L59.5 26.7257V19.4264ZM67.1875 13.5698L73.5745 17.2188L67.1875 20.8678L60.8005 17.2188L67.1875 13.5698ZM39 64.4354L32.613 60.7813L39 57.1323L45.387 60.7813L39 64.4354ZM31.3125 36.0827L37.7188 39.7432V47.0463L31.3125 43.3819V36.0827ZM40.2813 39.7432L46.6875 36.0827V43.3858L40.2813 47.0463V39.7432ZM39 37.5241L32.613 33.8751L39 30.2261L45.387 33.8751L39 37.5241ZM31.3125 9.17642L37.7188 12.837V20.1401L31.3125 16.4757V9.17642ZM40.2813 12.837L46.6875 9.17642V16.4795L40.2813 20.1401V12.837ZM39 3.31982L45.387 6.96883L39 10.6178L32.613 6.96883L39 3.31982ZM12.0938 23.087L18.5 19.4264V26.7295L12.0938 30.3901V23.087ZM10.8125 13.5698L17.1995 17.2188L10.8125 20.8678L4.42547 17.2188L10.8125 13.5698ZM3.125 19.4264L9.53125 23.087V30.3901L3.125 26.7257V19.4264ZM10.8125 54.1803L4.42547 50.5313L10.8125 46.8823L17.1995 50.5313L10.8125 54.1803ZM3.125 52.7389L9.53125 56.3994V63.7026L3.125 60.0382V52.7389ZM12.0938 63.6987V56.3956L18.5 52.7351V60.0382L12.0938 63.6987ZM21.0625 60.0702V50.5313C21.0629 50.306 21.004 50.0845 20.8915 49.8893C20.779 49.694 20.617 49.5319 20.4219 49.4192L12.0938 44.6632V33.3369L20.4219 28.5809C20.617 28.4683 20.779 28.3061 20.8915 28.1109C21.004 27.9156 21.0629 27.6942 21.0625 27.4688V23.1356L29.9915 18.6718L37.7188 23.087V28.007L29.3906 32.763C29.1955 32.8756 29.0335 33.0378 28.921 33.233C28.8085 33.4283 28.7496 33.6497 28.75 33.8751V44.1251C28.7496 44.3504 28.8085 44.5719 28.921 44.7671C29.0335 44.9624 29.1955 45.1245 29.3906 45.2372L37.7188 49.9932V54.9132L29.3906 59.6692C29.1955 59.7819 29.0335 59.944 28.921 60.1393C28.8085 60.3345 28.7496 60.556 28.75 60.7813V64.8813L21.0625 60.0702ZM31.3125 62.9889L37.7188 66.6495V73.9526L31.3125 70.2882V62.9889ZM40.2813 73.9487V66.6456L46.6875 62.9851V70.2882L40.2813 73.9487ZM48.6094 59.6692L40.2813 54.9132V49.9932L48.6094 45.2372C48.8045 45.1245 48.9665 44.9624 49.079 44.7671C49.1915 44.5719 49.2505 44.3504 49.25 44.1251V33.8751C49.2505 33.6497 49.1915 33.4283 49.079 33.233C48.9665 33.0378 48.8045 32.8756 48.6094 32.763L40.2813 28.007V23.087L48.0085 18.6718L56.9375 23.1356V27.4688C56.9371 27.6942 56.9961 27.9156 57.1085 28.1109C57.221 28.3061 57.383 28.4683 57.5781 28.5809L65.9063 33.3369V44.6632L57.5781 49.4192C57.383 49.5319 57.221 49.694 57.1085 49.8893C56.9961 50.0845 56.9371 50.306 56.9375 50.5313V60.0702L49.25 64.8813V60.7813C49.2505 60.556 49.1915 60.3345 49.079 60.1393C48.9665 59.944 48.8045 59.7819 48.6094 59.6692ZM59.5 52.7389L65.9063 56.3994V63.7026L59.5 60.0382V52.7389ZM68.4688 63.6987V56.3956L74.875 52.7351V60.0382L68.4688 63.6987Z" fill="black"/>
</svg>
