<svg width="82" height="82" viewBox="0 0 82 82" fill="none" xmlns="http://www.w3.org/2000/svg">
<path d="M55.4141 51.0898C54.5297 51.0898 53.8125 51.8069 53.8125 52.6914V63.7422C53.8125 68.1577 50.2202 71.75 45.8047 71.75H28.5129C27.6287 71.75 26.912 72.4664 26.9114 73.3504L26.9091 76.5347L23.0865 72.7122C22.8391 72.1441 22.2728 71.75 21.6177 71.75H11.2109C6.79543 71.75 3.20312 68.1577 3.20312 63.7422V39.0781C3.20312 34.6626 6.79543 31.0703 11.2109 31.0703H27.3867C28.2711 31.0703 28.9883 30.3533 28.9883 29.4688C28.9883 28.5842 28.2711 27.8672 27.3867 27.8672H11.2109C5.02923 27.8672 0 32.8964 0 39.0781V63.7422C0 69.9239 5.02923 74.9531 11.2109 74.9531H20.7976L27.3753 81.5309C27.6817 81.8373 28.0912 82 28.5081 82C28.7143 82 28.9223 81.9601 29.1201 81.8783C29.7186 81.6307 30.1089 81.0471 30.1094 80.3996L30.1132 74.9531H45.8047C51.9864 74.9531 57.0156 69.9239 57.0156 63.7422V52.6914C57.0156 51.8069 56.2984 51.0898 55.4141 51.0898Z" fill="black"/>
<path d="M58.7221 0H54.6687C41.8331 0 31.3906 10.4425 31.3906 23.2781C31.3906 36.1136 41.8331 46.556 54.6685 46.556H58.7219C60.7253 46.556 62.7082 46.3015 64.6301 45.7986L70.6179 51.783C70.9242 52.0891 71.3336 52.2518 71.7503 52.2518C71.9568 52.2518 72.165 52.2119 72.3631 52.1297C72.9614 51.8818 73.3516 51.2979 73.3516 50.6502V41.3842C75.8867 39.3312 77.9926 36.7378 79.4705 33.8405C81.1491 30.55 82 26.9963 82 23.2781C82 10.4425 71.5575 0 58.7221 0ZM70.7863 39.324C70.3848 39.6265 70.1484 40.1002 70.1484 40.6033V46.7853L66.2293 42.8682C65.9243 42.5636 65.5153 42.3994 65.097 42.3994C64.94 42.3994 64.7814 42.4227 64.6267 42.4702C62.7204 43.0561 60.7338 43.353 58.7221 43.353H54.6687C43.5992 43.353 34.5938 34.3474 34.5938 23.2781C34.5938 12.2087 43.5993 3.20312 54.6687 3.20312H58.7221C69.7915 3.20312 78.7969 12.2087 78.7969 23.2781C78.7969 29.6412 75.8772 35.4898 70.7863 39.324Z" fill="black"/>
<path d="M63.9076 17.5245C63.6765 14.1716 60.9737 11.4688 57.6207 11.2377C55.7199 11.1072 53.906 11.7483 52.5176 13.0444C51.1483 14.3226 50.363 16.1295 50.363 18.0019C50.363 18.8864 51.0802 19.6035 51.9646 19.6035C52.849 19.6035 53.5662 18.8864 53.5662 18.0019C53.5662 16.9995 53.9701 16.0704 54.7033 15.3861C55.4358 14.7024 56.3932 14.364 57.4006 14.4335C59.1668 14.5552 60.5905 15.9788 60.7122 17.7448C60.8352 19.5285 59.6649 21.1048 57.9298 21.493C56.5239 21.8075 55.5422 23.0292 55.5422 24.4637V28.3115C55.5422 29.196 56.2593 29.913 57.1437 29.913C58.0283 29.913 58.7453 29.196 58.7451 28.3115V24.5917C61.9723 23.812 64.1374 20.8591 63.9076 17.5245Z" fill="black"/>
<path d="M58.276 33.5143C57.9781 33.2164 57.5649 33.045 57.1437 33.045C56.7225 33.045 56.3093 33.2164 56.0114 33.5143C55.7135 33.8122 55.5421 34.2254 55.5421 34.6466C55.5421 35.0694 55.7136 35.4826 56.0114 35.7805C56.3093 36.0784 56.7225 36.2482 57.1437 36.2482C57.5649 36.2482 57.9781 36.0784 58.276 35.7805C58.5739 35.481 58.7452 35.0694 58.7452 34.6466C58.7452 34.2254 58.5737 33.8122 58.276 33.5143Z" fill="black"/>
<path d="M44.043 49.6484H10.25C9.36562 49.6484 8.64844 50.3655 8.64844 51.25C8.64844 52.1345 9.36562 52.8516 10.25 52.8516H44.043C44.9275 52.8516 45.6445 52.1345 45.6445 51.25C45.6445 50.3655 44.9274 49.6484 44.043 49.6484Z" fill="black"/>
<path d="M45.1751 59.0864C44.8774 58.7886 44.4642 58.6172 44.043 58.6172C43.6218 58.6172 43.2086 58.7886 42.9107 59.0864C42.6126 59.3843 42.4414 59.7975 42.4414 60.2188C42.4414 60.64 42.6128 61.0532 42.9107 61.3511C43.2086 61.6489 43.6218 61.8203 44.043 61.8203C44.4642 61.8203 44.8774 61.6489 45.1751 61.3511C45.4732 61.0532 45.6445 60.6416 45.6445 60.2188C45.6445 59.7975 45.473 59.3843 45.1751 59.0864Z" fill="black"/>
<path d="M37.7435 58.6172H10.25C9.36562 58.6172 8.64844 59.3342 8.64844 60.2188C8.64844 61.1033 9.36562 61.8203 10.25 61.8203H37.7435C38.6281 61.8203 39.3451 61.1033 39.3451 60.2188C39.3451 59.3342 38.6279 58.6172 37.7435 58.6172Z" fill="black"/>
<path d="M33.6328 40.6797H10.25C9.36562 40.6797 8.64844 41.3967 8.64844 42.2812C8.64844 43.1658 9.36562 43.8828 10.25 43.8828H33.6328C34.5174 43.8828 35.2344 43.1658 35.2344 42.2812C35.2344 41.3967 34.5172 40.6797 33.6328 40.6797Z" fill="black"/>
</svg>
