<svg width="82" height="82" viewBox="0 0 82 82" fill="none" xmlns="http://www.w3.org/2000/svg">
<path d="M77.5319 42.255L78.3008 41L77.5319 39.7444C77.403 39.5348 74.31 34.5424 68.301 29.5394C60.3089 22.8861 50.8934 19.3689 41.072 19.3689C31.253 19.3689 21.8144 22.8842 13.7766 29.5344C7.7332 34.5349 4.60515 39.5236 4.47502 39.7338L3.68988 41L4.47502 42.2662C4.60515 42.4764 7.7332 47.4651 13.7766 52.4656C21.8144 59.1158 31.253 62.6311 41.072 62.6311C50.8934 62.6311 60.3089 59.1139 68.301 52.4606C74.31 47.4576 77.403 42.4652 77.5319 42.255ZM65.0992 48.8733C57.9097 54.8141 49.8255 57.8258 41.072 57.8258C32.3153 57.8258 24.2049 54.8122 16.9666 48.8677C13.2229 45.7934 10.6848 42.6804 9.44174 41C10.6855 39.3184 13.2236 36.2059 16.9666 33.1317C24.2049 27.1878 32.3147 24.1736 41.072 24.1736C49.8255 24.1736 57.909 27.1859 65.0992 33.1261C68.8259 36.2053 71.3421 39.3227 72.5683 41C71.3409 42.6779 68.8253 45.7953 65.0992 48.8733Z" fill="black"/>
<path d="M41 26.5647C33.0404 26.5647 26.5647 33.0404 26.5647 41C26.5647 48.9597 33.0404 55.4354 41 55.4354C48.9597 55.4354 55.4354 48.9597 55.4354 41C55.4354 33.0404 48.9597 26.5647 41 26.5647ZM41 50.6307C35.6898 50.6307 31.3694 46.3102 31.3694 41C31.3694 35.6898 35.6898 31.3694 41 31.3694C46.3102 31.3694 50.6307 35.6898 50.6307 41C50.6307 46.3102 46.3102 50.6307 41 50.6307Z" fill="black"/>
<path d="M4.80469 4.80469H14.8345V0H0V14.6543H4.80469V4.80469Z" fill="black"/>
<path d="M67.1655 0V4.80469H77.1953V14.6543H82V0H67.1655Z" fill="black"/>
<path d="M4.80469 67.3457H0V82H14.8345V77.1953H4.80469V67.3457Z" fill="black"/>
<path d="M77.1953 77.1953H67.1655V82H82V67.3457H77.1953V77.1953Z" fill="black"/>
</svg>
